<mxfile host="app.diagrams.net" agent="Mozilla/5.0 (Windows NT 10.0; Win64; x64) AppleWebKit/537.36 (KHTML, like Gecko) Chrome/127.0.0.0 Safari/537.36" version="24.7.7">
  <diagram name="Page-1" id="YE49SfnMLdO0mT9TWQjM">
    <mxGraphModel grid="1" page="1" gridSize="10" guides="1" tooltips="1" connect="1" arrows="1" fold="1" pageScale="1" pageWidth="827" pageHeight="1169" math="0" shadow="0">
      <root>
        <mxCell id="0" />
        <mxCell id="1" parent="0" />
        <mxCell id="Nr1JeNmPu8eW9qiT71dF-1" value="item" style="swimlane;fontStyle=1;childLayout=stackLayout;horizontal=1;startSize=30;horizontalStack=0;resizeParent=1;resizeParentMax=0;resizeLast=0;collapsible=1;marginBottom=0;whiteSpace=wrap;html=1;strokeWidth=2;fontSize=13;" vertex="1" parent="1">
          <mxGeometry x="70" y="425" width="140" height="120" as="geometry" />
        </mxCell>
        <mxCell id="Nr1JeNmPu8eW9qiT71dF-2" value="item_code {PK}" style="text;strokeColor=none;fillColor=none;align=left;verticalAlign=middle;spacingLeft=4;spacingRight=4;overflow=hidden;points=[[0,0.5],[1,0.5]];portConstraint=eastwest;rotatable=0;whiteSpace=wrap;html=1;fontStyle=1" vertex="1" parent="Nr1JeNmPu8eW9qiT71dF-1">
          <mxGeometry y="30" width="140" height="30" as="geometry" />
        </mxCell>
        <mxCell id="Nr1JeNmPu8eW9qiT71dF-3" value="item_price" style="text;strokeColor=none;fillColor=none;align=left;verticalAlign=middle;spacingLeft=4;spacingRight=4;overflow=hidden;points=[[0,0.5],[1,0.5]];portConstraint=eastwest;rotatable=0;whiteSpace=wrap;html=1;fontStyle=1" vertex="1" parent="Nr1JeNmPu8eW9qiT71dF-1">
          <mxGeometry y="60" width="140" height="30" as="geometry" />
        </mxCell>
        <mxCell id="Nr1JeNmPu8eW9qiT71dF-4" value="stock_level" style="text;strokeColor=none;fillColor=none;align=left;verticalAlign=middle;spacingLeft=4;spacingRight=4;overflow=hidden;points=[[0,0.5],[1,0.5]];portConstraint=eastwest;rotatable=0;whiteSpace=wrap;html=1;fontStyle=1" vertex="1" parent="Nr1JeNmPu8eW9qiT71dF-1">
          <mxGeometry y="90" width="140" height="30" as="geometry" />
        </mxCell>
        <mxCell id="Nr1JeNmPu8eW9qiT71dF-5" value="book" style="swimlane;fontStyle=1;childLayout=stackLayout;horizontal=1;startSize=30;horizontalStack=0;resizeParent=1;resizeParentMax=0;resizeLast=0;collapsible=1;marginBottom=0;whiteSpace=wrap;html=1;strokeWidth=2;" vertex="1" parent="1">
          <mxGeometry x="70" y="20" width="140" height="270" as="geometry" />
        </mxCell>
        <mxCell id="Nr1JeNmPu8eW9qiT71dF-6" value="item_code {PK} {FK}" style="text;strokeColor=none;fillColor=none;align=left;verticalAlign=middle;spacingLeft=4;spacingRight=4;overflow=hidden;points=[[0,0.5],[1,0.5]];portConstraint=eastwest;rotatable=0;whiteSpace=wrap;html=1;fontStyle=1" vertex="1" parent="Nr1JeNmPu8eW9qiT71dF-5">
          <mxGeometry y="30" width="140" height="30" as="geometry" />
        </mxCell>
        <mxCell id="Nr1JeNmPu8eW9qiT71dF-7" value="isbn" style="text;strokeColor=none;fillColor=none;align=left;verticalAlign=middle;spacingLeft=4;spacingRight=4;overflow=hidden;points=[[0,0.5],[1,0.5]];portConstraint=eastwest;rotatable=0;whiteSpace=wrap;html=1;fontStyle=1" vertex="1" parent="Nr1JeNmPu8eW9qiT71dF-5">
          <mxGeometry y="60" width="140" height="30" as="geometry" />
        </mxCell>
        <mxCell id="Nr1JeNmPu8eW9qiT71dF-8" value="title" style="text;strokeColor=none;fillColor=none;align=left;verticalAlign=middle;spacingLeft=4;spacingRight=4;overflow=hidden;points=[[0,0.5],[1,0.5]];portConstraint=eastwest;rotatable=0;whiteSpace=wrap;html=1;fontStyle=1" vertex="1" parent="Nr1JeNmPu8eW9qiT71dF-5">
          <mxGeometry y="90" width="140" height="30" as="geometry" />
        </mxCell>
        <mxCell id="Nr1JeNmPu8eW9qiT71dF-9" value="genre" style="text;strokeColor=none;fillColor=none;align=left;verticalAlign=middle;spacingLeft=4;spacingRight=4;overflow=hidden;points=[[0,0.5],[1,0.5]];portConstraint=eastwest;rotatable=0;whiteSpace=wrap;html=1;fontStyle=1" vertex="1" parent="Nr1JeNmPu8eW9qiT71dF-5">
          <mxGeometry y="120" width="140" height="30" as="geometry" />
        </mxCell>
        <mxCell id="Nr1JeNmPu8eW9qiT71dF-10" value="category" style="text;strokeColor=none;fillColor=none;align=left;verticalAlign=middle;spacingLeft=4;spacingRight=4;overflow=hidden;points=[[0,0.5],[1,0.5]];portConstraint=eastwest;rotatable=0;whiteSpace=wrap;html=1;fontStyle=1" vertex="1" parent="Nr1JeNmPu8eW9qiT71dF-5">
          <mxGeometry y="150" width="140" height="30" as="geometry" />
        </mxCell>
        <mxCell id="Nr1JeNmPu8eW9qiT71dF-11" value="author" style="text;strokeColor=none;fillColor=none;align=left;verticalAlign=middle;spacingLeft=4;spacingRight=4;overflow=hidden;points=[[0,0.5],[1,0.5]];portConstraint=eastwest;rotatable=0;whiteSpace=wrap;html=1;fontStyle=1" vertex="1" parent="Nr1JeNmPu8eW9qiT71dF-5">
          <mxGeometry y="180" width="140" height="30" as="geometry" />
        </mxCell>
        <mxCell id="Nr1JeNmPu8eW9qiT71dF-12" value="publisher" style="text;strokeColor=none;fillColor=none;align=left;verticalAlign=middle;spacingLeft=4;spacingRight=4;overflow=hidden;points=[[0,0.5],[1,0.5]];portConstraint=eastwest;rotatable=0;whiteSpace=wrap;html=1;fontStyle=1" vertex="1" parent="Nr1JeNmPu8eW9qiT71dF-5">
          <mxGeometry y="210" width="140" height="30" as="geometry" />
        </mxCell>
        <mxCell id="Nr1JeNmPu8eW9qiT71dF-13" value="year_of_publication" style="text;strokeColor=none;fillColor=none;align=left;verticalAlign=middle;spacingLeft=4;spacingRight=4;overflow=hidden;points=[[0,0.5],[1,0.5]];portConstraint=eastwest;rotatable=0;whiteSpace=wrap;html=1;fontStyle=1" vertex="1" parent="Nr1JeNmPu8eW9qiT71dF-5">
          <mxGeometry y="240" width="140" height="30" as="geometry" />
        </mxCell>
        <mxCell id="Nr1JeNmPu8eW9qiT71dF-14" value="" style="endArrow=none;html=1;rounded=0;strokeWidth=2;entryX=0.495;entryY=1.039;entryDx=0;entryDy=0;entryPerimeter=0;exitX=0.5;exitY=0;exitDx=0;exitDy=0;" edge="1" parent="1" source="Nr1JeNmPu8eW9qiT71dF-1" target="Nr1JeNmPu8eW9qiT71dF-13">
          <mxGeometry width="50" height="50" relative="1" as="geometry">
            <mxPoint x="139" y="400" as="sourcePoint" />
            <mxPoint x="139.54999999999998" y="405" as="targetPoint" />
          </mxGeometry>
        </mxCell>
        <mxCell id="Nr1JeNmPu8eW9qiT71dF-15" value="supplier" style="swimlane;fontStyle=1;childLayout=stackLayout;horizontal=1;startSize=30;horizontalStack=0;resizeParent=1;resizeParentMax=0;resizeLast=0;collapsible=1;marginBottom=0;whiteSpace=wrap;html=1;strokeWidth=2;fontSize=13;" vertex="1" parent="1">
          <mxGeometry x="680" y="240" width="140" height="360" as="geometry" />
        </mxCell>
        <mxCell id="Nr1JeNmPu8eW9qiT71dF-16" value="sup_id {PK}" style="text;strokeColor=none;fillColor=none;align=left;verticalAlign=middle;spacingLeft=4;spacingRight=4;overflow=hidden;points=[[0,0.5],[1,0.5]];portConstraint=eastwest;rotatable=0;whiteSpace=wrap;html=1;fontStyle=1;strokeWidth=2;" vertex="1" parent="Nr1JeNmPu8eW9qiT71dF-15">
          <mxGeometry y="30" width="140" height="30" as="geometry" />
        </mxCell>
        <mxCell id="Nr1JeNmPu8eW9qiT71dF-17" value="name&lt;br&gt;&lt;blockquote style=&quot;margin: 0px 0px 0px 40px; border: none; padding: 0px; line-height: 130%;&quot;&gt;&lt;div style=&quot;text-align: center; line-height: 130%;&quot;&gt;&lt;span style=&quot;background-color: initial;&quot;&gt;f_name&lt;/span&gt;&lt;/div&gt;&lt;div style=&quot;text-align: center; line-height: 130%;&quot;&gt;&lt;span style=&quot;background-color: initial;&quot;&gt;l_name&lt;/span&gt;&lt;/div&gt;&lt;/blockquote&gt;" style="text;strokeColor=none;fillColor=none;align=left;verticalAlign=middle;spacingLeft=4;spacingRight=4;overflow=hidden;points=[[0,0.5],[1,0.5]];portConstraint=eastwest;rotatable=0;whiteSpace=wrap;html=1;fontStyle=1;spacing=2;spacingTop=0;spacingBottom=0;" vertex="1" parent="Nr1JeNmPu8eW9qiT71dF-15">
          <mxGeometry y="60" width="140" height="60" as="geometry" />
        </mxCell>
        <mxCell id="Nr1JeNmPu8eW9qiT71dF-18" value="contact_no." style="text;strokeColor=none;fillColor=none;align=left;verticalAlign=middle;spacingLeft=4;spacingRight=4;overflow=hidden;points=[[0,0.5],[1,0.5]];portConstraint=eastwest;rotatable=0;whiteSpace=wrap;html=1;fontStyle=1" vertex="1" parent="Nr1JeNmPu8eW9qiT71dF-15">
          <mxGeometry y="120" width="140" height="30" as="geometry" />
        </mxCell>
        <mxCell id="Nr1JeNmPu8eW9qiT71dF-19" value="email_address" style="text;strokeColor=none;fillColor=none;align=left;verticalAlign=middle;spacingLeft=4;spacingRight=4;overflow=hidden;points=[[0,0.5],[1,0.5]];portConstraint=eastwest;rotatable=0;whiteSpace=wrap;html=1;fontStyle=1" vertex="1" parent="Nr1JeNmPu8eW9qiT71dF-15">
          <mxGeometry y="150" width="140" height="30" as="geometry" />
        </mxCell>
        <mxCell id="Nr1JeNmPu8eW9qiT71dF-20" value="payment_conditions" style="text;strokeColor=none;fillColor=none;align=left;verticalAlign=middle;spacingLeft=4;spacingRight=4;overflow=hidden;points=[[0,0.5],[1,0.5]];portConstraint=eastwest;rotatable=0;whiteSpace=wrap;html=1;fontStyle=1" vertex="1" parent="Nr1JeNmPu8eW9qiT71dF-15">
          <mxGeometry y="180" width="140" height="30" as="geometry" />
        </mxCell>
        <mxCell id="Nr1JeNmPu8eW9qiT71dF-21" value="related_industry" style="text;strokeColor=none;fillColor=none;align=left;verticalAlign=middle;spacingLeft=4;spacingRight=4;overflow=hidden;points=[[0,0.5],[1,0.5]];portConstraint=eastwest;rotatable=0;whiteSpace=wrap;html=1;fontStyle=1" vertex="1" parent="Nr1JeNmPu8eW9qiT71dF-15">
          <mxGeometry y="210" width="140" height="30" as="geometry" />
        </mxCell>
        <mxCell id="Nr1JeNmPu8eW9qiT71dF-22" value="supply_quantity" style="text;strokeColor=none;fillColor=none;align=left;verticalAlign=middle;spacingLeft=4;spacingRight=4;overflow=hidden;points=[[0,0.5],[1,0.5]];portConstraint=eastwest;rotatable=0;whiteSpace=wrap;html=1;fontStyle=1" vertex="1" parent="Nr1JeNmPu8eW9qiT71dF-15">
          <mxGeometry y="240" width="140" height="30" as="geometry" />
        </mxCell>
        <mxCell id="Nr1JeNmPu8eW9qiT71dF-23" value="nic" style="text;strokeColor=none;fillColor=none;align=left;verticalAlign=middle;spacingLeft=4;spacingRight=4;overflow=hidden;points=[[0,0.5],[1,0.5]];portConstraint=eastwest;rotatable=0;whiteSpace=wrap;html=1;fontStyle=1" vertex="1" parent="Nr1JeNmPu8eW9qiT71dF-15">
          <mxGeometry y="270" width="140" height="30" as="geometry" />
        </mxCell>
        <mxCell id="Nr1JeNmPu8eW9qiT71dF-24" value="branch" style="text;strokeColor=none;fillColor=none;align=left;verticalAlign=middle;spacingLeft=4;spacingRight=4;overflow=hidden;points=[[0,0.5],[1,0.5]];portConstraint=eastwest;rotatable=0;whiteSpace=wrap;html=1;fontStyle=1" vertex="1" parent="Nr1JeNmPu8eW9qiT71dF-15">
          <mxGeometry y="300" width="140" height="30" as="geometry" />
        </mxCell>
        <mxCell id="Nr1JeNmPu8eW9qiT71dF-25" value="sup_type_id {FK}" style="text;strokeColor=none;fillColor=none;align=left;verticalAlign=middle;spacingLeft=4;spacingRight=4;overflow=hidden;points=[[0,0.5],[1,0.5]];portConstraint=eastwest;rotatable=0;whiteSpace=wrap;html=1;fontStyle=1" vertex="1" parent="Nr1JeNmPu8eW9qiT71dF-15">
          <mxGeometry y="330" width="140" height="30" as="geometry" />
        </mxCell>
        <mxCell id="Nr1JeNmPu8eW9qiT71dF-26" value="" style="endArrow=none;html=1;rounded=0;strokeWidth=2;" edge="1" parent="1">
          <mxGeometry width="50" height="50" relative="1" as="geometry">
            <mxPoint x="210" y="440" as="sourcePoint" />
            <mxPoint x="350" y="440" as="targetPoint" />
          </mxGeometry>
        </mxCell>
        <mxCell id="Nr1JeNmPu8eW9qiT71dF-27" value="customer" style="swimlane;fontStyle=1;childLayout=stackLayout;horizontal=1;startSize=30;horizontalStack=0;resizeParent=1;resizeParentMax=0;resizeLast=0;collapsible=1;marginBottom=0;whiteSpace=wrap;html=1;strokeWidth=2;fontSize=13;" vertex="1" parent="1">
          <mxGeometry x="355" y="660" width="150" height="330" as="geometry" />
        </mxCell>
        <mxCell id="Nr1JeNmPu8eW9qiT71dF-28" value="cust_id {PK}" style="text;strokeColor=none;fillColor=none;align=left;verticalAlign=middle;spacingLeft=4;spacingRight=4;overflow=hidden;points=[[0,0.5],[1,0.5]];portConstraint=eastwest;rotatable=0;whiteSpace=wrap;html=1;fontStyle=1" vertex="1" parent="Nr1JeNmPu8eW9qiT71dF-27">
          <mxGeometry y="30" width="150" height="30" as="geometry" />
        </mxCell>
        <mxCell id="Nr1JeNmPu8eW9qiT71dF-29" value="name" style="text;strokeColor=none;fillColor=none;align=left;verticalAlign=middle;spacingLeft=4;spacingRight=4;overflow=hidden;points=[[0,0.5],[1,0.5]];portConstraint=eastwest;rotatable=0;whiteSpace=wrap;html=1;fontStyle=1" vertex="1" parent="Nr1JeNmPu8eW9qiT71dF-27">
          <mxGeometry y="60" width="150" height="30" as="geometry" />
        </mxCell>
        <mxCell id="Nr1JeNmPu8eW9qiT71dF-30" value="nic" style="text;strokeColor=none;fillColor=none;align=left;verticalAlign=middle;spacingLeft=4;spacingRight=4;overflow=hidden;points=[[0,0.5],[1,0.5]];portConstraint=eastwest;rotatable=0;whiteSpace=wrap;html=1;fontStyle=1" vertex="1" parent="Nr1JeNmPu8eW9qiT71dF-27">
          <mxGeometry y="90" width="150" height="30" as="geometry" />
        </mxCell>
        <mxCell id="Nr1JeNmPu8eW9qiT71dF-31" value="contact_no." style="text;strokeColor=none;fillColor=none;align=left;verticalAlign=middle;spacingLeft=4;spacingRight=4;overflow=hidden;points=[[0,0.5],[1,0.5]];portConstraint=eastwest;rotatable=0;whiteSpace=wrap;html=1;fontStyle=1" vertex="1" parent="Nr1JeNmPu8eW9qiT71dF-27">
          <mxGeometry y="120" width="150" height="30" as="geometry" />
        </mxCell>
        <mxCell id="Nr1JeNmPu8eW9qiT71dF-32" value="email_address" style="text;strokeColor=none;fillColor=none;align=left;verticalAlign=middle;spacingLeft=4;spacingRight=4;overflow=hidden;points=[[0,0.5],[1,0.5]];portConstraint=eastwest;rotatable=0;whiteSpace=wrap;html=1;fontStyle=1" vertex="1" parent="Nr1JeNmPu8eW9qiT71dF-27">
          <mxGeometry y="150" width="150" height="30" as="geometry" />
        </mxCell>
        <mxCell id="Nr1JeNmPu8eW9qiT71dF-33" value="address&lt;br&gt;&amp;nbsp; &amp;nbsp; &amp;nbsp; &amp;nbsp; &amp;nbsp; &amp;nbsp;address_line_1&lt;br&gt;&amp;nbsp; &amp;nbsp; &amp;nbsp; &amp;nbsp; &amp;nbsp; &amp;nbsp;address_line_2" style="text;strokeColor=none;fillColor=none;align=left;verticalAlign=middle;spacingLeft=4;spacingRight=4;overflow=hidden;points=[[0,0.5],[1,0.5]];portConstraint=eastwest;rotatable=0;whiteSpace=wrap;html=1;fontStyle=1" vertex="1" parent="Nr1JeNmPu8eW9qiT71dF-27">
          <mxGeometry y="180" width="150" height="60" as="geometry" />
        </mxCell>
        <mxCell id="Nr1JeNmPu8eW9qiT71dF-34" value="city" style="text;strokeColor=none;fillColor=none;align=left;verticalAlign=middle;spacingLeft=4;spacingRight=4;overflow=hidden;points=[[0,0.5],[1,0.5]];portConstraint=eastwest;rotatable=0;whiteSpace=wrap;html=1;fontStyle=1" vertex="1" parent="Nr1JeNmPu8eW9qiT71dF-27">
          <mxGeometry y="240" width="150" height="30" as="geometry" />
        </mxCell>
        <mxCell id="Nr1JeNmPu8eW9qiT71dF-35" value="country" style="text;strokeColor=none;fillColor=none;align=left;verticalAlign=middle;spacingLeft=4;spacingRight=4;overflow=hidden;points=[[0,0.5],[1,0.5]];portConstraint=eastwest;rotatable=0;whiteSpace=wrap;html=1;fontStyle=1" vertex="1" parent="Nr1JeNmPu8eW9qiT71dF-27">
          <mxGeometry y="270" width="150" height="30" as="geometry" />
        </mxCell>
        <mxCell id="Nr1JeNmPu8eW9qiT71dF-36" value="postal_code" style="text;strokeColor=none;fillColor=none;align=left;verticalAlign=middle;spacingLeft=4;spacingRight=4;overflow=hidden;points=[[0,0.5],[1,0.5]];portConstraint=eastwest;rotatable=0;whiteSpace=wrap;html=1;fontStyle=1" vertex="1" parent="Nr1JeNmPu8eW9qiT71dF-27">
          <mxGeometry y="300" width="150" height="30" as="geometry" />
        </mxCell>
        <mxCell id="Nr1JeNmPu8eW9qiT71dF-37" value="order" style="swimlane;fontStyle=1;childLayout=stackLayout;horizontal=1;startSize=30;horizontalStack=0;resizeParent=1;resizeParentMax=0;resizeLast=0;collapsible=1;marginBottom=0;whiteSpace=wrap;html=1;strokeWidth=2;fontSize=13;" vertex="1" parent="1">
          <mxGeometry x="70" y="840" width="140" height="240" as="geometry" />
        </mxCell>
        <mxCell id="Nr1JeNmPu8eW9qiT71dF-38" value="order_id {PK}" style="text;strokeColor=none;fillColor=none;align=left;verticalAlign=middle;spacingLeft=4;spacingRight=4;overflow=hidden;points=[[0,0.5],[1,0.5]];portConstraint=eastwest;rotatable=0;whiteSpace=wrap;html=1;fontStyle=1" vertex="1" parent="Nr1JeNmPu8eW9qiT71dF-37">
          <mxGeometry y="30" width="140" height="30" as="geometry" />
        </mxCell>
        <mxCell id="Nr1JeNmPu8eW9qiT71dF-39" value="quantity" style="text;strokeColor=none;fillColor=none;align=left;verticalAlign=middle;spacingLeft=4;spacingRight=4;overflow=hidden;points=[[0,0.5],[1,0.5]];portConstraint=eastwest;rotatable=0;whiteSpace=wrap;html=1;fontStyle=1" vertex="1" parent="Nr1JeNmPu8eW9qiT71dF-37">
          <mxGeometry y="60" width="140" height="30" as="geometry" />
        </mxCell>
        <mxCell id="Nr1JeNmPu8eW9qiT71dF-40" value="order_date" style="text;strokeColor=none;fillColor=none;align=left;verticalAlign=middle;spacingLeft=4;spacingRight=4;overflow=hidden;points=[[0,0.5],[1,0.5]];portConstraint=eastwest;rotatable=0;whiteSpace=wrap;html=1;fontStyle=1" vertex="1" parent="Nr1JeNmPu8eW9qiT71dF-37">
          <mxGeometry y="90" width="140" height="30" as="geometry" />
        </mxCell>
        <mxCell id="Nr1JeNmPu8eW9qiT71dF-41" value="delivery_date" style="text;strokeColor=none;fillColor=none;align=left;verticalAlign=middle;spacingLeft=4;spacingRight=4;overflow=hidden;points=[[0,0.5],[1,0.5]];portConstraint=eastwest;rotatable=0;whiteSpace=wrap;html=1;fontStyle=1" vertex="1" parent="Nr1JeNmPu8eW9qiT71dF-37">
          <mxGeometry y="120" width="140" height="30" as="geometry" />
        </mxCell>
        <mxCell id="Nr1JeNmPu8eW9qiT71dF-42" value="dest_address" style="text;strokeColor=none;fillColor=none;align=left;verticalAlign=middle;spacingLeft=4;spacingRight=4;overflow=hidden;points=[[0,0.5],[1,0.5]];portConstraint=eastwest;rotatable=0;whiteSpace=wrap;html=1;fontStyle=1" vertex="1" parent="Nr1JeNmPu8eW9qiT71dF-37">
          <mxGeometry y="150" width="140" height="30" as="geometry" />
        </mxCell>
        <mxCell id="Nr1JeNmPu8eW9qiT71dF-43" value="cust_id {FK}" style="text;strokeColor=none;fillColor=none;align=left;verticalAlign=middle;spacingLeft=4;spacingRight=4;overflow=hidden;points=[[0,0.5],[1,0.5]];portConstraint=eastwest;rotatable=0;whiteSpace=wrap;html=1;fontStyle=1" vertex="1" parent="Nr1JeNmPu8eW9qiT71dF-37">
          <mxGeometry y="180" width="140" height="30" as="geometry" />
        </mxCell>
        <mxCell id="Nr1JeNmPu8eW9qiT71dF-44" value="pay_id {FK}" style="text;strokeColor=none;fillColor=none;align=left;verticalAlign=middle;spacingLeft=4;spacingRight=4;overflow=hidden;points=[[0,0.5],[1,0.5]];portConstraint=eastwest;rotatable=0;whiteSpace=wrap;html=1;fontStyle=1" vertex="1" parent="Nr1JeNmPu8eW9qiT71dF-37">
          <mxGeometry y="210" width="140" height="30" as="geometry" />
        </mxCell>
        <mxCell id="Nr1JeNmPu8eW9qiT71dF-45" value="order_item" style="swimlane;fontStyle=1;childLayout=stackLayout;horizontal=1;startSize=30;horizontalStack=0;resizeParent=1;resizeParentMax=0;resizeLast=0;collapsible=1;marginBottom=0;whiteSpace=wrap;html=1;strokeWidth=2;fontSize=13;" vertex="1" parent="1">
          <mxGeometry x="70" y="640" width="140" height="90" as="geometry" />
        </mxCell>
        <mxCell id="Nr1JeNmPu8eW9qiT71dF-46" value="(item_code {FK}" style="text;strokeColor=none;fillColor=none;align=left;verticalAlign=middle;spacingLeft=4;spacingRight=4;overflow=hidden;points=[[0,0.5],[1,0.5]];portConstraint=eastwest;rotatable=0;whiteSpace=wrap;html=1;fontStyle=1" vertex="1" parent="Nr1JeNmPu8eW9qiT71dF-45">
          <mxGeometry y="30" width="140" height="30" as="geometry" />
        </mxCell>
        <mxCell id="Nr1JeNmPu8eW9qiT71dF-47" value="order_id {FK}) {PK}" style="text;strokeColor=none;fillColor=none;align=left;verticalAlign=middle;spacingLeft=4;spacingRight=4;overflow=hidden;points=[[0,0.5],[1,0.5]];portConstraint=eastwest;rotatable=0;whiteSpace=wrap;html=1;fontStyle=1" vertex="1" parent="Nr1JeNmPu8eW9qiT71dF-45">
          <mxGeometry y="60" width="140" height="30" as="geometry" />
        </mxCell>
        <mxCell id="Nr1JeNmPu8eW9qiT71dF-48" value="" style="endArrow=none;html=1;rounded=0;strokeWidth=2;entryX=0.5;entryY=1;entryDx=0;entryDy=0;" edge="1" parent="1" target="Nr1JeNmPu8eW9qiT71dF-1">
          <mxGeometry width="50" height="50" relative="1" as="geometry">
            <mxPoint x="140" y="640" as="sourcePoint" />
            <mxPoint x="140" y="600" as="targetPoint" />
          </mxGeometry>
        </mxCell>
        <mxCell id="Nr1JeNmPu8eW9qiT71dF-49" value="" style="endArrow=none;html=1;rounded=0;strokeWidth=2;entryX=0.501;entryY=0.999;entryDx=0;entryDy=0;entryPerimeter=0;" edge="1" parent="1" target="Nr1JeNmPu8eW9qiT71dF-47">
          <mxGeometry width="50" height="50" relative="1" as="geometry">
            <mxPoint x="140" y="840" as="sourcePoint" />
            <mxPoint x="140" y="770" as="targetPoint" />
          </mxGeometry>
        </mxCell>
        <mxCell id="Nr1JeNmPu8eW9qiT71dF-50" value="payment" style="swimlane;fontStyle=1;childLayout=stackLayout;horizontal=1;startSize=30;horizontalStack=0;resizeParent=1;resizeParentMax=0;resizeLast=0;collapsible=1;marginBottom=0;whiteSpace=wrap;html=1;strokeWidth=2;fontSize=13;" vertex="1" parent="1">
          <mxGeometry x="660" y="885" width="140" height="210" as="geometry" />
        </mxCell>
        <mxCell id="Nr1JeNmPu8eW9qiT71dF-51" value="pay_id {PK}" style="text;strokeColor=none;fillColor=none;align=left;verticalAlign=middle;spacingLeft=4;spacingRight=4;overflow=hidden;points=[[0,0.5],[1,0.5]];portConstraint=eastwest;rotatable=0;whiteSpace=wrap;html=1;fontStyle=1" vertex="1" parent="Nr1JeNmPu8eW9qiT71dF-50">
          <mxGeometry y="30" width="140" height="30" as="geometry" />
        </mxCell>
        <mxCell id="Nr1JeNmPu8eW9qiT71dF-52" value="amount" style="text;strokeColor=none;fillColor=none;align=left;verticalAlign=middle;spacingLeft=4;spacingRight=4;overflow=hidden;points=[[0,0.5],[1,0.5]];portConstraint=eastwest;rotatable=0;whiteSpace=wrap;html=1;fontStyle=1" vertex="1" parent="Nr1JeNmPu8eW9qiT71dF-50">
          <mxGeometry y="60" width="140" height="30" as="geometry" />
        </mxCell>
        <mxCell id="Nr1JeNmPu8eW9qiT71dF-53" value="pay_date" style="text;strokeColor=none;fillColor=none;align=left;verticalAlign=middle;spacingLeft=4;spacingRight=4;overflow=hidden;points=[[0,0.5],[1,0.5]];portConstraint=eastwest;rotatable=0;whiteSpace=wrap;html=1;fontStyle=1" vertex="1" parent="Nr1JeNmPu8eW9qiT71dF-50">
          <mxGeometry y="90" width="140" height="30" as="geometry" />
        </mxCell>
        <mxCell id="Nr1JeNmPu8eW9qiT71dF-54" value="pay_time" style="text;strokeColor=none;fillColor=none;align=left;verticalAlign=middle;spacingLeft=4;spacingRight=4;overflow=hidden;points=[[0,0.5],[1,0.5]];portConstraint=eastwest;rotatable=0;whiteSpace=wrap;html=1;fontStyle=1" vertex="1" parent="Nr1JeNmPu8eW9qiT71dF-50">
          <mxGeometry y="120" width="140" height="30" as="geometry" />
        </mxCell>
        <mxCell id="Nr1JeNmPu8eW9qiT71dF-55" value="pay_type_id {FK}" style="text;strokeColor=none;fillColor=none;align=left;verticalAlign=middle;spacingLeft=4;spacingRight=4;overflow=hidden;points=[[0,0.5],[1,0.5]];portConstraint=eastwest;rotatable=0;whiteSpace=wrap;html=1;fontStyle=1" vertex="1" parent="Nr1JeNmPu8eW9qiT71dF-50">
          <mxGeometry y="150" width="140" height="30" as="geometry" />
        </mxCell>
        <mxCell id="Nr1JeNmPu8eW9qiT71dF-56" value="cust_id {FK}" style="text;strokeColor=none;fillColor=none;align=left;verticalAlign=middle;spacingLeft=4;spacingRight=4;overflow=hidden;points=[[0,0.5],[1,0.5]];portConstraint=eastwest;rotatable=0;whiteSpace=wrap;html=1;fontStyle=1" vertex="1" parent="Nr1JeNmPu8eW9qiT71dF-50">
          <mxGeometry y="180" width="140" height="30" as="geometry" />
        </mxCell>
        <mxCell id="Nr1JeNmPu8eW9qiT71dF-57" value="payment_type" style="swimlane;fontStyle=1;childLayout=stackLayout;horizontal=1;startSize=30;horizontalStack=0;resizeParent=1;resizeParentMax=0;resizeLast=0;collapsible=1;marginBottom=0;whiteSpace=wrap;html=1;strokeWidth=2;fontSize=13;" vertex="1" parent="1">
          <mxGeometry x="650" y="650" width="140" height="90" as="geometry" />
        </mxCell>
        <mxCell id="Nr1JeNmPu8eW9qiT71dF-58" value="pay_type_id {PK}" style="text;strokeColor=none;fillColor=none;align=left;verticalAlign=middle;spacingLeft=4;spacingRight=4;overflow=hidden;points=[[0,0.5],[1,0.5]];portConstraint=eastwest;rotatable=0;whiteSpace=wrap;html=1;fontStyle=1" vertex="1" parent="Nr1JeNmPu8eW9qiT71dF-57">
          <mxGeometry y="30" width="140" height="30" as="geometry" />
        </mxCell>
        <mxCell id="Nr1JeNmPu8eW9qiT71dF-59" value="payment_method" style="text;strokeColor=none;fillColor=none;align=left;verticalAlign=middle;spacingLeft=4;spacingRight=4;overflow=hidden;points=[[0,0.5],[1,0.5]];portConstraint=eastwest;rotatable=0;whiteSpace=wrap;html=1;fontStyle=1" vertex="1" parent="Nr1JeNmPu8eW9qiT71dF-57">
          <mxGeometry y="60" width="140" height="30" as="geometry" />
        </mxCell>
        <mxCell id="Nr1JeNmPu8eW9qiT71dF-60" value="" style="endArrow=none;html=1;rounded=0;strokeWidth=2;entryX=-0.001;entryY=1.046;entryDx=0;entryDy=0;entryPerimeter=0;" edge="1" parent="1" target="Nr1JeNmPu8eW9qiT71dF-35">
          <mxGeometry width="50" height="50" relative="1" as="geometry">
            <mxPoint x="210" y="960" as="sourcePoint" />
            <mxPoint x="375" y="960" as="targetPoint" />
          </mxGeometry>
        </mxCell>
        <mxCell id="Nr1JeNmPu8eW9qiT71dF-61" value="" style="endArrow=none;html=1;rounded=0;strokeWidth=2;exitX=0.43;exitY=-0.007;exitDx=0;exitDy=0;exitPerimeter=0;" edge="1" parent="1" source="Nr1JeNmPu8eW9qiT71dF-50">
          <mxGeometry width="50" height="50" relative="1" as="geometry">
            <mxPoint x="720.61" y="900" as="sourcePoint" />
            <mxPoint x="719.38" y="740" as="targetPoint" />
          </mxGeometry>
        </mxCell>
        <mxCell id="Nr1JeNmPu8eW9qiT71dF-62" value="" style="endArrow=none;html=1;rounded=0;strokeWidth=2;entryX=-0.003;entryY=0.155;entryDx=0;entryDy=0;exitX=0;exitY=0;exitDx=0;exitDy=0;entryPerimeter=0;" edge="1" parent="1" source="Nr1JeNmPu8eW9qiT71dF-87" target="Nr1JeNmPu8eW9qiT71dF-55">
          <mxGeometry width="50" height="50" relative="1" as="geometry">
            <mxPoint x="485" y="1040" as="sourcePoint" />
            <mxPoint x="630" y="1041" as="targetPoint" />
          </mxGeometry>
        </mxCell>
        <mxCell id="Nr1JeNmPu8eW9qiT71dF-63" value="" style="endArrow=none;html=1;rounded=0;strokeWidth=2;entryX=0;entryY=0.5;entryDx=0;entryDy=0;" edge="1" parent="1" target="Nr1JeNmPu8eW9qiT71dF-52">
          <mxGeometry width="50" height="50" relative="1" as="geometry">
            <mxPoint x="505" y="960" as="sourcePoint" />
            <mxPoint x="630" y="961" as="targetPoint" />
          </mxGeometry>
        </mxCell>
        <mxCell id="Nr1JeNmPu8eW9qiT71dF-64" value="" style="triangle;whiteSpace=wrap;html=1;rotation=-180;strokeWidth=2;fillColor=#000000;direction=south;" vertex="1" parent="1">
          <mxGeometry x="150" y="350" width="10" height="10" as="geometry" />
        </mxCell>
        <mxCell id="Nr1JeNmPu8eW9qiT71dF-65" value="can be" style="text;html=1;strokeColor=none;fillColor=none;align=center;verticalAlign=middle;whiteSpace=wrap;rounded=0;fontSize=13;fontStyle=1" vertex="1" parent="1">
          <mxGeometry x="160" y="340" width="60" height="30" as="geometry" />
        </mxCell>
        <mxCell id="Nr1JeNmPu8eW9qiT71dF-66" value="" style="triangle;whiteSpace=wrap;html=1;rotation=-180;strokeWidth=2;fillColor=#000000;direction=south;" vertex="1" parent="1">
          <mxGeometry x="150" y="590" width="10" height="10" as="geometry" />
        </mxCell>
        <mxCell id="Nr1JeNmPu8eW9qiT71dF-67" value="" style="triangle;whiteSpace=wrap;html=1;rotation=-180;strokeWidth=2;fillColor=#000000;direction=north;" vertex="1" parent="1">
          <mxGeometry x="150" y="780" width="10" height="10" as="geometry" />
        </mxCell>
        <mxCell id="Nr1JeNmPu8eW9qiT71dF-68" value="" style="triangle;whiteSpace=wrap;html=1;rotation=-180;strokeWidth=2;fillColor=#000000;direction=east;" vertex="1" parent="1">
          <mxGeometry x="240" y="940" width="10" height="10" as="geometry" />
        </mxCell>
        <mxCell id="Nr1JeNmPu8eW9qiT71dF-69" value="" style="triangle;whiteSpace=wrap;html=1;rotation=-180;strokeWidth=2;fillColor=#000000;direction=west;" vertex="1" parent="1">
          <mxGeometry x="600" y="940" width="10" height="10" as="geometry" />
        </mxCell>
        <mxCell id="Nr1JeNmPu8eW9qiT71dF-70" value="" style="triangle;whiteSpace=wrap;html=1;rotation=-180;strokeWidth=2;fillColor=#000000;direction=west;" vertex="1" parent="1">
          <mxGeometry x="430" y="1060" width="10" height="10" as="geometry" />
        </mxCell>
        <mxCell id="Nr1JeNmPu8eW9qiT71dF-71" value="has" style="text;html=1;strokeColor=none;fillColor=none;align=center;verticalAlign=middle;whiteSpace=wrap;rounded=0;fontSize=13;fontStyle=1" vertex="1" parent="1">
          <mxGeometry x="380" y="1050" width="60" height="30" as="geometry" />
        </mxCell>
        <mxCell id="Nr1JeNmPu8eW9qiT71dF-72" value="makes" style="text;html=1;strokeColor=none;fillColor=none;align=center;verticalAlign=middle;whiteSpace=wrap;rounded=0;fontSize=13;fontStyle=1" vertex="1" parent="1">
          <mxGeometry x="540" y="930" width="60" height="30" as="geometry" />
        </mxCell>
        <mxCell id="Nr1JeNmPu8eW9qiT71dF-73" value="places" style="text;html=1;strokeColor=none;fillColor=none;align=center;verticalAlign=middle;whiteSpace=wrap;rounded=0;fontSize=13;fontStyle=1" vertex="1" parent="1">
          <mxGeometry x="250" y="930" width="60" height="30" as="geometry" />
        </mxCell>
        <mxCell id="Nr1JeNmPu8eW9qiT71dF-74" value="includes" style="text;html=1;strokeColor=none;fillColor=none;align=center;verticalAlign=middle;whiteSpace=wrap;rounded=0;fontSize=13;fontStyle=1" vertex="1" parent="1">
          <mxGeometry x="170" y="580" width="60" height="30" as="geometry" />
        </mxCell>
        <mxCell id="Nr1JeNmPu8eW9qiT71dF-75" value="includes" style="text;html=1;strokeColor=none;fillColor=none;align=center;verticalAlign=middle;whiteSpace=wrap;rounded=0;fontSize=13;fontStyle=1" vertex="1" parent="1">
          <mxGeometry x="170" y="770" width="60" height="30" as="geometry" />
        </mxCell>
        <mxCell id="Nr1JeNmPu8eW9qiT71dF-76" value="" style="triangle;whiteSpace=wrap;html=1;rotation=-180;strokeWidth=2;fillColor=#000000;direction=west;" vertex="1" parent="1">
          <mxGeometry x="620" y="480" width="10" height="10" as="geometry" />
        </mxCell>
        <mxCell id="Nr1JeNmPu8eW9qiT71dF-77" value="" style="triangle;whiteSpace=wrap;html=1;rotation=-180;strokeWidth=2;fillColor=#000000;direction=south;" vertex="1" parent="1">
          <mxGeometry x="740" y="175" width="10" height="10" as="geometry" />
        </mxCell>
        <mxCell id="Nr1JeNmPu8eW9qiT71dF-78" value="has" style="text;html=1;strokeColor=none;fillColor=none;align=center;verticalAlign=middle;whiteSpace=wrap;rounded=0;fontSize=13;fontStyle=1" vertex="1" parent="1">
          <mxGeometry x="690" y="165" width="60" height="30" as="geometry" />
        </mxCell>
        <mxCell id="Nr1JeNmPu8eW9qiT71dF-79" value="[1..*]" style="text;html=1;strokeColor=none;fillColor=none;align=center;verticalAlign=middle;whiteSpace=wrap;rounded=0;fontStyle=1;fontSize=13;" vertex="1" parent="1">
          <mxGeometry x="80" y="610" width="60" height="30" as="geometry" />
        </mxCell>
        <mxCell id="Nr1JeNmPu8eW9qiT71dF-80" value="[1..*]" style="text;html=1;strokeColor=none;fillColor=none;align=center;verticalAlign=middle;whiteSpace=wrap;rounded=0;fontStyle=1;fontSize=13;" vertex="1" parent="1">
          <mxGeometry x="80" y="730" width="60" height="30" as="geometry" />
        </mxCell>
        <mxCell id="Nr1JeNmPu8eW9qiT71dF-81" value="[1..1]" style="text;html=1;strokeColor=none;fillColor=none;align=center;verticalAlign=middle;whiteSpace=wrap;rounded=0;fontStyle=1;fontSize=13;" vertex="1" parent="1">
          <mxGeometry x="80" y="545" width="60" height="30" as="geometry" />
        </mxCell>
        <mxCell id="Nr1JeNmPu8eW9qiT71dF-82" value="[1..1]" style="text;html=1;strokeColor=none;fillColor=none;align=center;verticalAlign=middle;whiteSpace=wrap;rounded=0;fontStyle=1;fontSize=13;" vertex="1" parent="1">
          <mxGeometry x="80" y="810" width="60" height="30" as="geometry" />
        </mxCell>
        <mxCell id="Nr1JeNmPu8eW9qiT71dF-83" value="[1..1]" style="text;html=1;strokeColor=none;fillColor=none;align=center;verticalAlign=middle;whiteSpace=wrap;rounded=0;fontStyle=1;fontSize=13;" vertex="1" parent="1">
          <mxGeometry x="295" y="960" width="60" height="30" as="geometry" />
        </mxCell>
        <mxCell id="Nr1JeNmPu8eW9qiT71dF-84" value="[1..*]" style="text;html=1;strokeColor=none;fillColor=none;align=center;verticalAlign=middle;whiteSpace=wrap;rounded=0;fontStyle=1;fontSize=13;" vertex="1" parent="1">
          <mxGeometry x="210" y="960" width="60" height="30" as="geometry" />
        </mxCell>
        <mxCell id="Nr1JeNmPu8eW9qiT71dF-85" value="[1..*]" style="text;html=1;strokeColor=none;fillColor=none;align=center;verticalAlign=middle;whiteSpace=wrap;rounded=0;fontStyle=1;fontSize=13;" vertex="1" parent="1">
          <mxGeometry x="600" y="960" width="60" height="30" as="geometry" />
        </mxCell>
        <mxCell id="Nr1JeNmPu8eW9qiT71dF-86" value="[1..1]" style="text;html=1;strokeColor=none;fillColor=none;align=center;verticalAlign=middle;whiteSpace=wrap;rounded=0;fontStyle=1;fontSize=13;" vertex="1" parent="1">
          <mxGeometry x="505" y="960" width="60" height="30" as="geometry" />
        </mxCell>
        <mxCell id="Nr1JeNmPu8eW9qiT71dF-87" value="[1..*]" style="text;html=1;strokeColor=none;fillColor=none;align=center;verticalAlign=middle;whiteSpace=wrap;rounded=0;fontStyle=1;fontSize=13;" vertex="1" parent="1">
          <mxGeometry x="210" y="1040" width="60" height="30" as="geometry" />
        </mxCell>
        <mxCell id="Nr1JeNmPu8eW9qiT71dF-88" value="[1..1]" style="text;html=1;strokeColor=none;fillColor=none;align=center;verticalAlign=middle;whiteSpace=wrap;rounded=0;fontStyle=1;fontSize=13;" vertex="1" parent="1">
          <mxGeometry x="600" y="1040" width="60" height="30" as="geometry" />
        </mxCell>
        <mxCell id="Nr1JeNmPu8eW9qiT71dF-89" value="[1..1]" style="text;html=1;strokeColor=none;fillColor=none;align=center;verticalAlign=middle;whiteSpace=wrap;rounded=0;fontStyle=1;fontSize=13;" vertex="1" parent="1">
          <mxGeometry x="660" y="740" width="60" height="30" as="geometry" />
        </mxCell>
        <mxCell id="Nr1JeNmPu8eW9qiT71dF-90" value="[1..*]" style="text;html=1;strokeColor=none;fillColor=none;align=center;verticalAlign=middle;whiteSpace=wrap;rounded=0;fontStyle=1;fontSize=13;" vertex="1" parent="1">
          <mxGeometry x="660" y="850" width="60" height="30" as="geometry" />
        </mxCell>
        <mxCell id="Nr1JeNmPu8eW9qiT71dF-91" value="" style="triangle;whiteSpace=wrap;html=1;rotation=-180;strokeWidth=2;fillColor=#000000;direction=south;" vertex="1" parent="1">
          <mxGeometry x="700" y="810" width="10" height="10" as="geometry" />
        </mxCell>
        <mxCell id="Nr1JeNmPu8eW9qiT71dF-92" value="consists" style="text;html=1;strokeColor=none;fillColor=none;align=center;verticalAlign=middle;whiteSpace=wrap;rounded=0;fontSize=13;fontStyle=1" vertex="1" parent="1">
          <mxGeometry x="640" y="800" width="60" height="30" as="geometry" />
        </mxCell>
        <mxCell id="Nr1JeNmPu8eW9qiT71dF-93" value="[1..1]" style="text;html=1;strokeColor=none;fillColor=none;align=center;verticalAlign=middle;whiteSpace=wrap;rounded=0;fontStyle=1;fontSize=13;" vertex="1" parent="1">
          <mxGeometry x="670" y="50" width="60" height="30" as="geometry" />
        </mxCell>
        <mxCell id="Nr1JeNmPu8eW9qiT71dF-94" value="[1..*]" style="text;html=1;strokeColor=none;fillColor=none;align=center;verticalAlign=middle;whiteSpace=wrap;rounded=0;fontStyle=1;fontSize=13;" vertex="1" parent="1">
          <mxGeometry x="340" y="500" width="60" height="30" as="geometry" />
        </mxCell>
        <mxCell id="Nr1JeNmPu8eW9qiT71dF-95" value="[1..*]" style="text;html=1;strokeColor=none;fillColor=none;align=center;verticalAlign=middle;whiteSpace=wrap;rounded=0;fontStyle=1;fontSize=13;" vertex="1" parent="1">
          <mxGeometry x="540" y="500" width="60" height="30" as="geometry" />
        </mxCell>
        <mxCell id="Nr1JeNmPu8eW9qiT71dF-96" value="[0..1]" style="text;html=1;strokeColor=none;fillColor=none;align=center;verticalAlign=middle;whiteSpace=wrap;rounded=0;fontStyle=1;fontSize=13;" vertex="1" parent="1">
          <mxGeometry x="80" y="290" width="60" height="30" as="geometry" />
        </mxCell>
        <mxCell id="Nr1JeNmPu8eW9qiT71dF-97" value="[1..1]" style="text;html=1;strokeColor=none;fillColor=none;align=center;verticalAlign=middle;whiteSpace=wrap;rounded=0;fontStyle=1;fontSize=13;" vertex="1" parent="1">
          <mxGeometry x="80" y="395" width="60" height="30" as="geometry" />
        </mxCell>
        <mxCell id="Nr1JeNmPu8eW9qiT71dF-98" value="stationary" style="swimlane;fontStyle=1;childLayout=stackLayout;horizontal=1;startSize=30;horizontalStack=0;resizeParent=1;resizeParentMax=0;resizeLast=0;collapsible=1;marginBottom=0;whiteSpace=wrap;html=1;strokeWidth=2;" vertex="1" parent="1">
          <mxGeometry x="280" y="120" width="140" height="120" as="geometry" />
        </mxCell>
        <mxCell id="Nr1JeNmPu8eW9qiT71dF-99" value="item_code {PK} {FK}" style="text;strokeColor=none;fillColor=none;align=left;verticalAlign=middle;spacingLeft=4;spacingRight=4;overflow=hidden;points=[[0,0.5],[1,0.5]];portConstraint=eastwest;rotatable=0;whiteSpace=wrap;html=1;fontStyle=1" vertex="1" parent="Nr1JeNmPu8eW9qiT71dF-98">
          <mxGeometry y="30" width="140" height="30" as="geometry" />
        </mxCell>
        <mxCell id="Nr1JeNmPu8eW9qiT71dF-100" value="stationary_type" style="text;strokeColor=none;fillColor=none;align=left;verticalAlign=middle;spacingLeft=4;spacingRight=4;overflow=hidden;points=[[0,0.5],[1,0.5]];portConstraint=eastwest;rotatable=0;whiteSpace=wrap;html=1;fontStyle=1" vertex="1" parent="Nr1JeNmPu8eW9qiT71dF-98">
          <mxGeometry y="60" width="140" height="30" as="geometry" />
        </mxCell>
        <mxCell id="Nr1JeNmPu8eW9qiT71dF-101" value="brand" style="text;strokeColor=none;fillColor=none;align=left;verticalAlign=middle;spacingLeft=4;spacingRight=4;overflow=hidden;points=[[0,0.5],[1,0.5]];portConstraint=eastwest;rotatable=0;whiteSpace=wrap;html=1;fontStyle=1" vertex="1" parent="Nr1JeNmPu8eW9qiT71dF-98">
          <mxGeometry y="90" width="140" height="30" as="geometry" />
        </mxCell>
        <mxCell id="Nr1JeNmPu8eW9qiT71dF-102" value="" style="endArrow=none;html=1;rounded=0;strokeWidth=2;exitX=0.5;exitY=0;exitDx=0;exitDy=0;" edge="1" parent="1">
          <mxGeometry width="50" height="50" relative="1" as="geometry">
            <mxPoint x="351" y="440" as="sourcePoint" />
            <mxPoint x="350" y="240" as="targetPoint" />
          </mxGeometry>
        </mxCell>
        <mxCell id="Nr1JeNmPu8eW9qiT71dF-103" value="[0..1]" style="text;html=1;strokeColor=none;fillColor=none;align=center;verticalAlign=middle;whiteSpace=wrap;rounded=0;fontStyle=1;fontSize=13;" vertex="1" parent="1">
          <mxGeometry x="290" y="240" width="60" height="30" as="geometry" />
        </mxCell>
        <mxCell id="Nr1JeNmPu8eW9qiT71dF-104" value="[1..1]" style="text;html=1;strokeColor=none;fillColor=none;align=center;verticalAlign=middle;whiteSpace=wrap;rounded=0;fontStyle=1;fontSize=13;" vertex="1" parent="1">
          <mxGeometry x="210" y="410" width="60" height="30" as="geometry" />
        </mxCell>
        <mxCell id="Nr1JeNmPu8eW9qiT71dF-105" value="can be" style="text;html=1;strokeColor=none;fillColor=none;align=center;verticalAlign=middle;whiteSpace=wrap;rounded=0;fontSize=13;fontStyle=1" vertex="1" parent="1">
          <mxGeometry x="370" y="320" width="60" height="30" as="geometry" />
        </mxCell>
        <mxCell id="Nr1JeNmPu8eW9qiT71dF-106" value="" style="triangle;whiteSpace=wrap;html=1;rotation=-180;strokeWidth=2;fillColor=#000000;direction=south;" vertex="1" parent="1">
          <mxGeometry x="360" y="330" width="10" height="10" as="geometry" />
        </mxCell>
        <mxCell id="Nr1JeNmPu8eW9qiT71dF-107" value="supplier_type" style="swimlane;fontStyle=1;childLayout=stackLayout;horizontal=1;startSize=30;horizontalStack=0;resizeParent=1;resizeParentMax=0;resizeLast=0;collapsible=1;marginBottom=0;whiteSpace=wrap;html=1;strokeWidth=2;fontSize=13;" vertex="1" parent="1">
          <mxGeometry x="525" y="40" width="140" height="90" as="geometry" />
        </mxCell>
        <mxCell id="Nr1JeNmPu8eW9qiT71dF-108" value="sup_type_id {PK}" style="text;strokeColor=none;fillColor=none;align=left;verticalAlign=middle;spacingLeft=4;spacingRight=4;overflow=hidden;points=[[0,0.5],[1,0.5]];portConstraint=eastwest;rotatable=0;whiteSpace=wrap;html=1;fontStyle=1" vertex="1" parent="Nr1JeNmPu8eW9qiT71dF-107">
          <mxGeometry y="30" width="140" height="30" as="geometry" />
        </mxCell>
        <mxCell id="Nr1JeNmPu8eW9qiT71dF-109" value="sup_type" style="text;strokeColor=none;fillColor=none;align=left;verticalAlign=middle;spacingLeft=4;spacingRight=4;overflow=hidden;points=[[0,0.5],[1,0.5]];portConstraint=eastwest;rotatable=0;whiteSpace=wrap;html=1;fontStyle=1" vertex="1" parent="Nr1JeNmPu8eW9qiT71dF-107">
          <mxGeometry y="60" width="140" height="30" as="geometry" />
        </mxCell>
        <mxCell id="Nr1JeNmPu8eW9qiT71dF-110" value="" style="endArrow=none;html=1;rounded=0;strokeWidth=2;exitX=0.564;exitY=-0.003;exitDx=0;exitDy=0;exitPerimeter=0;" edge="1" parent="1" source="Nr1JeNmPu8eW9qiT71dF-15">
          <mxGeometry width="50" height="50" relative="1" as="geometry">
            <mxPoint x="729.3299999999999" y="240" as="sourcePoint" />
            <mxPoint x="759" y="80" as="targetPoint" />
          </mxGeometry>
        </mxCell>
        <mxCell id="Nr1JeNmPu8eW9qiT71dF-111" value="[1..*]" style="text;html=1;strokeColor=none;fillColor=none;align=center;verticalAlign=middle;whiteSpace=wrap;rounded=0;fontStyle=1;fontSize=13;" vertex="1" parent="1">
          <mxGeometry x="760" y="210" width="60" height="30" as="geometry" />
        </mxCell>
        <mxCell id="Nr1JeNmPu8eW9qiT71dF-112" value="stock" style="swimlane;fontStyle=1;childLayout=stackLayout;horizontal=1;startSize=30;horizontalStack=0;resizeParent=1;resizeParentMax=0;resizeLast=0;collapsible=1;marginBottom=0;whiteSpace=wrap;html=1;strokeWidth=2;fontSize=13;" vertex="1" parent="1">
          <mxGeometry x="400" y="455" width="140" height="90" as="geometry" />
        </mxCell>
        <mxCell id="Nr1JeNmPu8eW9qiT71dF-113" value="(item_code {FK}" style="text;strokeColor=none;fillColor=none;align=left;verticalAlign=middle;spacingLeft=4;spacingRight=4;overflow=hidden;points=[[0,0.5],[1,0.5]];portConstraint=eastwest;rotatable=0;whiteSpace=wrap;html=1;fontStyle=1" vertex="1" parent="Nr1JeNmPu8eW9qiT71dF-112">
          <mxGeometry y="30" width="140" height="30" as="geometry" />
        </mxCell>
        <mxCell id="Nr1JeNmPu8eW9qiT71dF-114" value="sup_id {FK} ) {PK}" style="text;strokeColor=none;fillColor=none;align=left;verticalAlign=middle;spacingLeft=4;spacingRight=4;overflow=hidden;points=[[0,0.5],[1,0.5]];portConstraint=eastwest;rotatable=0;whiteSpace=wrap;html=1;fontStyle=1" vertex="1" parent="Nr1JeNmPu8eW9qiT71dF-112">
          <mxGeometry y="60" width="140" height="30" as="geometry" />
        </mxCell>
        <mxCell id="Nr1JeNmPu8eW9qiT71dF-115" value="" style="endArrow=none;html=1;rounded=0;strokeWidth=2;entryX=0;entryY=0.5;entryDx=0;entryDy=0;" edge="1" parent="1" target="Nr1JeNmPu8eW9qiT71dF-113">
          <mxGeometry width="50" height="50" relative="1" as="geometry">
            <mxPoint x="210" y="499" as="sourcePoint" />
            <mxPoint x="350" y="499" as="targetPoint" />
          </mxGeometry>
        </mxCell>
        <mxCell id="Nr1JeNmPu8eW9qiT71dF-116" value="" style="endArrow=none;html=1;rounded=0;strokeWidth=2;" edge="1" parent="1">
          <mxGeometry width="50" height="50" relative="1" as="geometry">
            <mxPoint x="540" y="499.5" as="sourcePoint" />
            <mxPoint x="680" y="499.5" as="targetPoint" />
          </mxGeometry>
        </mxCell>
        <mxCell id="Nr1JeNmPu8eW9qiT71dF-117" value="[1..1]" style="text;html=1;strokeColor=none;fillColor=none;align=center;verticalAlign=middle;whiteSpace=wrap;rounded=0;fontStyle=1;fontSize=13;" vertex="1" parent="1">
          <mxGeometry x="210" y="500" width="60" height="30" as="geometry" />
        </mxCell>
        <mxCell id="Nr1JeNmPu8eW9qiT71dF-118" value="[1..1]" style="text;html=1;strokeColor=none;fillColor=none;align=center;verticalAlign=middle;whiteSpace=wrap;rounded=0;fontStyle=1;fontSize=13;" vertex="1" parent="1">
          <mxGeometry x="620" y="500" width="60" height="30" as="geometry" />
        </mxCell>
        <mxCell id="Nr1JeNmPu8eW9qiT71dF-119" value="" style="triangle;whiteSpace=wrap;html=1;rotation=-180;strokeWidth=2;fillColor=#000000;direction=east;" vertex="1" parent="1">
          <mxGeometry x="275" y="480" width="10" height="10" as="geometry" />
        </mxCell>
        <mxCell id="Nr1JeNmPu8eW9qiT71dF-120" value="has" style="text;html=1;strokeColor=none;fillColor=none;align=center;verticalAlign=middle;whiteSpace=wrap;rounded=0;fontSize=13;fontStyle=1" vertex="1" parent="1">
          <mxGeometry x="280" y="470" width="60" height="30" as="geometry" />
        </mxCell>
        <mxCell id="Nr1JeNmPu8eW9qiT71dF-121" value="has" style="text;html=1;strokeColor=none;fillColor=none;align=center;verticalAlign=middle;whiteSpace=wrap;rounded=0;fontSize=13;fontStyle=1" vertex="1" parent="1">
          <mxGeometry x="565" y="470" width="60" height="30" as="geometry" />
        </mxCell>
        <mxCell id="Nr1JeNmPu8eW9qiT71dF-122" value="" style="endArrow=none;html=1;rounded=0;strokeWidth=2;" edge="1" parent="1">
          <mxGeometry width="50" height="50" relative="1" as="geometry">
            <mxPoint x="665" y="80" as="sourcePoint" />
            <mxPoint x="760" y="80" as="targetPoint" />
          </mxGeometry>
        </mxCell>
      </root>
    </mxGraphModel>
  </diagram>
</mxfile>
